<?xml version="1.0" encoding="UTF-8" standalone="no"?>
<!-- Created with Inkscape (http://www.inkscape.org/) -->

<svg
   width="184.10938"
   height="184.10938"
   viewBox="0 0 184.10938 184.10938"
   version="1.1"
   id="svg1"
   xmlns:xlink="http://www.w3.org/1999/xlink"
   xmlns="http://www.w3.org/2000/svg"
   xmlns:svg="http://www.w3.org/2000/svg">
  <defs
     id="defs1">
    <linearGradient
       id="linearGradient9">
      <stop
         style="stop-color:#a05a2c;stop-opacity:1"
         offset="0"
         id="stop9" />
      <stop
         style="stop-color:#28170b;stop-opacity:1"
         offset="1"
         id="stop10" />
    </linearGradient>
    <linearGradient
       id="swatch2">
      <stop
         style="stop-color:#0d1c31;stop-opacity:1;"
         offset="0"
         id="stop2" />
    </linearGradient>
    <linearGradient
       xlink:href="#linearGradient9"
       id="linearGradient10"
       x1="65"
       y1="770"
       x2="195"
       y2="645"
       gradientUnits="userSpaceOnUse" />
  </defs>
  <g
     id="layer1"
     transform="translate(-40.890625,-617.94531)">
    <path
       id="path9"
       style="fill:url(#linearGradient10);fill-opacity:1;stroke:none;stroke-width:18.8976;stroke-dasharray:none;stroke-opacity:1"
       d="M 132.94531,617.94531 A 92.054741,92.054741 0 0 0 40.890625,710 92.054741,92.054741 0 0 0 132.94531,802.05468 92.054741,92.054741 0 0 0 225,710 92.054741,92.054741 0 0 0 132.94531,617.94531 Z m -39.402341,26.17578 h 78.908201 c 1.32018,2.9e-4 2.39034,1.07045 2.39063,2.39063 v 8.12695 c 2.9e-4,1.32018 1.07044,2.39033 2.39062,2.39062 h 3.13672 c 1.32018,2.9e-4 2.39034,1.07045 2.39063,2.39063 v 3.18945 c -2.9e-4,1.32018 -1.07045,2.39034 -2.39063,2.39063 h -2.45117 l -11.70508,114.11523 c -0.32313,3.15269 -2.97924,5.55029 -6.14844,5.55078 h -54.23828 c -3.16919,-4.9e-4 -5.82531,-2.39809 -6.148435,-5.55078 L 87.972656,665 h -2.451171 c -1.320183,-2.9e-4 -2.39034,-1.07045 -2.390625,-2.39063 v -3.18945 c 2.85e-4,-1.32018 1.070442,-2.39034 2.390625,-2.39063 h 3.240234 c 1.320182,-2.9e-4 2.39034,-1.07044 2.390625,-2.39062 v -8.12695 c 2.85e-4,-1.32018 1.070442,-2.39034 2.390625,-2.39063 z m 2.832031,7.03906 c -0.714146,0 -1.289062,0.57493 -1.289062,1.28907 0,0.71415 0.574916,1.28906 1.289062,1.28906 h 73.14063 c 0.71413,0 1.28906,-0.57491 1.28906,-1.28906 0,-0.71414 -0.57493,-1.28907 -1.28906,-1.28907 z m -7.126953,8.15625 c -0.714138,0 -1.289062,0.57494 -1.289062,1.28907 0,0.71413 0.574924,1.28906 1.289062,1.28906 h 87.394533 c 0.71413,0 1.28906,-0.57493 1.28906,-1.28906 0,-0.71413 -0.57493,-1.28907 -1.28906,-1.28907 z m 37.830083,30.17383 c -0.33508,-0.0348 -0.66863,-0.0321 -0.99805,0.004 -0.37648,0.0412 -0.746,0.12911 -1.10156,0.27148 -8.05614,3.22553 -14.2496,13.18611 -15.70118,25.56446 -0.35896,3.05867 -0.35976,8.07623 0,11.13476 1.28786,10.94909 6.29852,20.11887 18.29883,26.35156 -0.31205,-0.90893 -1.22898,-4.06722 -1.73242,-7.10547 -0.34,-2.05187 -0.61896,-4.41895 -0.78516,-7.12695 -0.18877,-3.07508 -0.21648,-8.09869 0.35938,-11.12109 0.44834,-2.35303 1.14998,-4.50988 1.96094,-6.50391 1.16043,-2.85326 3.5926,-7.23176 4.93359,-10.00586 0.18556,-0.38388 0.36227,-0.76027 0.52734,-1.13086 1.24487,-2.79442 1.46027,-7.87104 0.93946,-10.90429 -0.31984,-1.86254 -0.76942,-3.576 -1.26172,-5.09375 -0.72722,-2.24206 -3.09395,-4.09834 -5.43945,-4.33399 z m 10.32421,1.14649 c -1.46979,-0.0627 -2.14569,1.47698 -1.51757,3.69921 0.39849,1.40982 0.74871,2.94509 1.00586,4.57813 0.4788,3.04074 0.42226,8.1289 -0.69141,10.98242 -0.32751,0.83915 -0.71194,1.67478 -1.12695,2.51367 -1.36636,2.76174 -3.82178,7.12548 -4.96289,9.98633 -0.63619,1.59498 -1.18165,3.27738 -1.5625,5.07422 -0.6378,3.00885 -0.60436,8.03869 -0.40821,11.11328 0.15117,2.36959 0.39197,4.45052 1.86524,11.71289 0.45734,1.59558 3.56065,2.85274 6.39453,1.6875 7.99409,-3.28701 14.1201,-13.21464 15.56054,-25.51953 0.3588,-3.05874 0.35564,-8.07645 -0.006,-11.13476 -1.27239,-10.76452 -6.14089,-19.81424 -12.83399,-24.06055 -0.64745,-0.41076 -1.22685,-0.61181 -1.7168,-0.63281 z" />
  </g>
</svg>
