<?xml version="1.0" encoding="UTF-8" standalone="no"?>
<!-- Created with Inkscape (http://www.inkscape.org/) -->

<svg
   width="600"
   height="140.54433"
   viewBox="0 0 600 140.54433"
   version="1.1"
   id="svg1"
   xmlns:xlink="http://www.w3.org/1999/xlink"
   xmlns="http://www.w3.org/2000/svg"
   xmlns:svg="http://www.w3.org/2000/svg">
  <defs
     id="defs1">
    <linearGradient
       id="linearGradient6">
      <stop
         style="stop-color:#2b1100;stop-opacity:1;"
         offset="0"
         id="stop6" />
      <stop
         style="stop-color:#552200;stop-opacity:1"
         offset="1"
         id="stop7" />
    </linearGradient>
    <linearGradient
       id="swatch2">
      <stop
         style="stop-color:#0d1c31;stop-opacity:1;"
         offset="0"
         id="stop2" />
    </linearGradient>
    <linearGradient
       xlink:href="#linearGradient6"
       id="linearGradient7"
       x1="107.24292"
       y1="579.61639"
       x2="107.24292"
       y2="469.72906"
       gradientUnits="userSpaceOnUse"
       gradientTransform="matrix(1.2789928,0,0,1.2789928,-6.8835327,-131.71662)" />
  </defs>
  <g
     id="layer1"
     transform="translate(-80.464844,-469.06445)">
    <path
       id="path3"
       style="fill:url(#linearGradient7);fill-opacity:1;stroke:none;stroke-width:6.17938;stroke-dasharray:none;stroke-opacity:1"
       d="m 90.876645,469.06445 a 2.3911367,2.3911367 0 0 0 -2.390618,2.39062 v 8.1261 a 2.3911367,2.3911367 0 0 1 -2.390616,2.39062 h -3.23995 a 2.3911367,2.3911367 0 0 0 -2.390617,2.39062 v 3.18998 a 2.3911367,2.3911367 0 0 0 2.390617,2.39062 h 2.45057 l 11.705783,114.11514 a 6.1808216,6.1808216 0 0 0 6.147656,5.55063 h 54.23979 a 6.1808216,6.1808216 0 0 0 6.14766,-5.55063 l 11.70577,-114.11514 h 2.45058 a 2.3911367,2.3911367 0 0 0 2.39062,-2.39062 v -3.18998 a 2.3911367,2.3911367 0 0 0 -2.39062,-2.39062 h -3.13753 a 2.3911367,2.3911367 0 0 1 -2.39062,-2.39062 v -8.1261 a 2.3911367,2.3911367 0 0 0 -2.39062,-2.39062 z m 2.832768,7.03946 h 73.139907 c 0.71414,0 1.28898,0.57484 1.28898,1.28898 0,0.71416 -0.57484,1.28899 -1.28898,1.28899 H 93.709413 c -0.714147,0 -1.288984,-0.57483 -1.288984,-1.28899 0,-0.71414 0.574837,-1.28898 1.288984,-1.28898 z m -7.126887,8.15608 H 173.9762 c 0.71413,0 1.289,0.57484 1.289,1.28897 0,0.71414 -0.57487,1.289 -1.289,1.289 H 86.582526 c -0.714139,0 -1.288986,-0.57486 -1.288986,-1.289 0,-0.71413 0.574847,-1.28897 1.288986,-1.28897 z m 371.602364,22.66465 c -6.19641,0 -10.61279,2.01167 -13.24957,6.03275 -2.63678,3.95516 -4.02239,9.62363 -4.15423,17.00661 h -8.10611 v 3.16251 h 8.10611 v 31.04805 c 0,3.62557 -0.49252,5.96726 -1.48133,7.02197 -0.92286,0.98879 -3.16505,1.58083 -6.7247,1.77859 v 1.48384 h 25.70975 v -1.48384 c -4.02108,-0.13183 -6.55928,-0.69237 -7.614,-1.68117 -1.05471,-1.05473 -1.58376,-3.42793 -1.58376,-7.11939 v -31.04805 h 12.06301 V 529.964 h -12.16043 v -11.47096 c 0,-5.86682 1.87817,-8.80057 5.63557,-8.80057 1.25247,0 2.30805,0.39552 3.16499,1.18656 0.92287,0.7251 1.58044,1.58167 1.97595,2.57048 0.46144,0.92287 1.05598,1.78194 1.7811,2.57297 0.79103,0.72511 1.71313,1.08664 2.76782,1.08664 1.12062,0 2.07672,-0.39554 2.86774,-1.18657 0.85696,-0.79103 1.28649,-1.74712 1.28649,-2.86774 0,-1.77982 -0.99008,-3.22845 -2.96766,-4.34908 -1.91168,-1.18655 -4.35037,-1.78109 -7.31674,-1.78109 z m -99.27431,0.69195 c -9.42648,0 -17.30316,3.2298 -23.63141,9.68987 -6.32826,6.3942 -9.49252,14.7344 -9.49252,25.0178 0,10.08566 3.03075,18.19285 9.09535,24.32335 6.06457,6.1305 13.97525,9.19526 23.7313,9.19526 5.60315,0 10.74508,-1.08709 15.42536,-3.26243 4.68028,-2.17534 8.53609,-5.2741 11.56839,-9.29519 l -1.7786,-1.77859 c -6.92153,6.65785 -14.27166,9.98713 -22.05014,9.98713 -3.0323,0 -5.90053,-0.46353 -8.60322,-1.3864 -2.63678,-0.9888 -5.20649,-2.53694 -7.71144,-4.64636 -2.50492,-2.17532 -4.5166,-5.33959 -6.03274,-9.49251 -1.45022,-4.21885 -2.1758,-9.19576 -2.1758,-14.93075 0,-8.96503 2.11119,-16.11613 6.33002,-21.4556 4.28477,-5.33947 10.01875,-8.01118 17.20396,-8.01118 10.54708,0 17.63269,6.132 21.25826,18.39301 h 2.27571 l -0.89181,-22.34741 h -2.07586 c -0.59327,2.17535 -1.97639,3.26244 -4.15172,3.26244 -0.59328,0 -2.73597,-0.52655 -6.42745,-1.58126 -3.69148,-1.12062 -7.64681,-1.68118 -11.86564,-1.68118 z m 271.91835,0 c -1.25248,0 -2.63808,0.75958 -4.15423,2.27572 l -14.53604,14.63346 h 3.95688 l 15.22551,-9.59244 c 1.97759,-1.25247 2.96766,-2.63558 2.96766,-4.15173 0,-2.10941 -1.1526,-3.16501 -3.45978,-3.16501 z m -435.16731,1.38392 v 1.87852 c 3.62557,0.26367 5.96477,0.95773 7.01947,2.07836 1.05471,1.05472 1.58126,3.32841 1.58126,6.82212 v 43.90294 c 0,3.49371 -0.52655,5.79892 -1.58126,6.91954 -1.0547,1.05471 -3.3939,1.71477 -7.01947,1.97845 v 1.87852 h 53.19561 l 4.74627,-17.20395 h -2.47055 c 0,0.0659 -0.19902,0.55846 -0.59454,1.48133 -0.39552,0.85696 -0.66004,1.4175 -0.79188,1.68116 -0.13182,0.2637 -0.42784,0.85824 -0.8893,1.78111 -0.46143,0.85695 -0.88846,1.449 -1.28399,1.7786 -0.32958,0.3296 -0.85864,0.89014 -1.58375,1.68118 -0.6592,0.72512 -1.31676,1.25416 -1.97594,1.58374 -0.65921,0.32959 -1.51828,0.75664 -2.57297,1.284 -1.05472,0.52736 -2.14181,0.9229 -3.26244,1.18656 -1.12062,0.19776 -2.43821,0.39679 -3.95439,0.59454 -1.45022,0.19776 -3.03236,0.29477 -4.74625,0.29476 h -6.62479 c -3.62557,0 -5.96477,-0.23051 -7.01947,-0.69196 -0.9888,-0.52736 -1.48383,-1.64845 -1.48383,-3.36235 v -46.76817 c 0,-3.49371 0.56055,-5.7674 1.68117,-6.82212 1.12063,-1.12063 3.62485,-1.81469 7.51408,-2.07836 v -1.87852 z m -71.24889,5.43321 c 2.34551,0.23565 4.71099,2.09203 5.43821,4.33409 0.4923,1.51776 0.94168,3.23094 1.26152,5.09348 0.52081,3.03326 0.30561,8.10949 -0.93926,10.90392 -0.16507,0.37059 -0.34152,0.74774 -0.52708,1.13162 -1.34099,2.7741 -3.77319,7.15135 -4.93362,10.00461 -0.81096,1.99403 -1.51262,4.15185 -1.96096,6.50488 -0.57586,3.02241 -0.54849,8.04617 -0.35972,11.12125 0.1662,2.708 0.44688,5.075 0.78688,7.12688 0.50344,3.03825 1.41908,6.19548 1.73113,7.10441 -12.00032,-6.2327 -17.01022,-15.40265 -18.29808,-26.35175 -0.35976,-3.05853 -0.35896,-8.07506 0,-11.13374 1.45158,-12.37836 7.644,-22.33933 15.70014,-25.56486 0.35556,-0.14237 0.72515,-0.23106 1.10163,-0.27229 0.32942,-0.036 0.66413,-0.0368 0.99921,-0.002 z m 10.32438,1.1466 c 0.48995,0.021 1.06869,0.22124 1.71614,0.632 6.69311,4.24632 11.5625,13.29652 12.83489,24.06105 0.3615,3.05832 0.3638,8.075 0.005,11.13374 -1.44045,12.3049 -7.56615,22.23289 -15.56025,25.51991 -2.83388,1.16524 -5.93763,-0.0906 -6.39497,-1.68618 -1.47327,-7.26238 -1.71485,-9.34368 -1.86602,-11.71327 -0.19615,-3.07459 -0.22812,-8.1049 0.40968,-11.11375 0.38086,-1.79684 0.92507,-3.47854 1.56126,-5.07352 1.14112,-2.86085 3.59723,-7.22538 4.96359,-9.98712 0.41501,-0.83889 0.79911,-1.67387 1.12662,-2.51302 1.11367,-2.85352 1.17077,-7.94311 0.69196,-10.98385 -0.25715,-1.63304 -0.60822,-3.16658 -1.00671,-4.5764 -0.62812,-2.22224 0.049,-3.76227 1.5188,-3.69959 z m 385.6438,1.62871 c -0.26367,0.3296 -0.92373,1.25168 -1.97844,2.76783 -1.64799,2.30717 -3.16461,4.28483 -4.54891,5.93283 -1.38431,1.64798 -2.47142,2.80057 -3.26244,3.45977 -0.79102,0.59327 -1.48259,1.08832 -2.07587,1.48384 -0.52736,0.3296 -0.89138,0.59412 -1.08913,0.79187 -0.19776,0.19776 -0.29728,0.45979 -0.29728,0.78939 0,0.26367 0.1335,0.49418 0.3972,0.69195 h 5.24087 v 29.76405 c 0,8.37176 2.93374,12.55762 8.80057,12.55762 4.74618,0 8.69902,-2.5042 11.86316,-7.51409 l -1.28399,-1.08914 c -1.91167,2.30717 -3.88933,3.46228 -5.93283,3.46228 -1.84575,0 -3.16336,-0.69406 -3.95439,-2.07836 -0.79103,-1.45023 -1.18656,-3.72393 -1.18656,-6.82214 v -28.28022 h 9.98464 V 529.964 h -9.98464 v -11.47096 c 0,-0.85696 -0.23053,-1.28401 -0.69196,-1.28401 z m -244.8247,11.76574 c -4.68027,0 -8.63561,1.08709 -11.86565,3.26243 -3.16415,2.10942 -4.74627,4.71315 -4.74627,7.81135 0,1.12064 0.42704,2.11072 1.28398,2.96767 0.85697,0.85695 1.84704,1.28398 2.96768,1.28398 1.18654,0 2.20813,-0.39553 3.06508,-1.18656 0.92287,-0.85696 1.38391,-1.84455 1.38391,-2.96516 0,-0.26369 -0.0995,-0.85823 -0.29727,-1.7811 -0.13184,-0.92287 -0.19735,-1.64595 -0.19735,-2.17329 0,-1.3184 0.69156,-2.43949 2.07587,-3.36235 1.38429,-0.98879 3.06595,-1.48383 5.04353,-1.48383 5.00987,0 7.51408,2.73473 7.51408,8.20603 v 6.03275 c -0.85694,0.32961 -2.20856,0.85615 -4.0543,1.58126 -1.84574,0.7251 -3.19736,1.28565 -4.05431,1.68117 -0.85696,0.3296 -2.10906,0.85613 -3.75703,1.58126 -1.58208,0.65919 -2.76869,1.25376 -3.55971,1.7811 -0.79103,0.46145 -1.77862,1.08749 -2.96517,1.87852 -1.18655,0.72511 -2.07712,1.45066 -2.67039,2.17578 -0.59327,0.7251 -1.21931,1.54769 -1.87852,2.47056 -0.65918,0.85696 -1.12022,1.81303 -1.38391,2.86775 -0.26368,0.98878 -0.39469,2.07837 -0.39469,3.26491 0,3.09822 0.95359,5.63393 2.86524,7.61152 1.97759,1.97757 4.48429,2.96766 7.51659,2.96766 3.95514,0 8.76706,-2.40719 14.43613,-7.21931 0.26368,2.57085 0.85572,4.41751 1.77859,5.53812 0.9888,1.12064 2.50544,1.68119 4.54892,1.68119 1.648,0 3.09911,-0.33003 4.35158,-0.98922 1.31838,-0.72512 2.835,-2.04272 4.54892,-3.9544 v -2.57047 c -1.51615,1.25247 -2.96729,1.87852 -4.35158,1.87852 -1.12063,0 -1.91169,-0.39552 -2.37313,-1.18657 -0.39552,-0.85694 -0.59453,-2.37357 -0.59453,-4.54891 v -19.28231 c 0,-5.33947 -1.02158,-9.2948 -3.06508,-11.86566 -2.0435,-2.63678 -5.76583,-3.95439 -11.17121,-3.95439 z m 133.9795,0 c -4.68028,0 -8.63561,1.08709 -11.86567,3.26243 -3.16412,2.10942 -4.74627,4.71315 -4.74627,7.81135 0,1.12064 0.42954,2.11072 1.28649,2.96767 0.85695,0.85695 1.84455,1.28398 2.96517,1.28398 1.18656,0 2.20815,-0.39553 3.06509,-1.18656 0.92289,-0.85696 1.38641,-1.84455 1.38641,-2.96516 0,-0.26369 -0.0995,-0.85823 -0.29726,-1.7811 -0.13186,-0.92287 -0.19736,-1.64595 -0.19736,-2.17329 0,-1.3184 0.69156,-2.43949 2.07588,-3.36235 1.38431,-0.98879 3.06594,-1.48383 5.04352,-1.48383 5.00986,0 7.51408,2.73473 7.51408,8.20603 v 6.03275 c -0.85696,0.32961 -2.20856,0.85615 -4.0543,1.58126 -1.84574,0.7251 -3.19736,1.28565 -4.0543,1.68117 -0.85695,0.3296 -2.10908,0.85613 -3.75704,1.58126 -1.58208,0.65919 -2.76868,1.25376 -3.55971,1.7811 -0.79103,0.46145 -1.77862,1.08749 -2.96517,1.87852 -1.18654,0.72511 -2.07712,1.45066 -2.67039,2.17578 -0.59327,0.7251 -1.21934,1.54769 -1.87852,2.47056 -0.65919,0.85696 -1.12024,1.81303 -1.38391,2.86775 -0.26368,0.98878 -0.39719,2.07837 -0.39719,3.26491 0,3.09822 0.95609,5.63393 2.86774,7.61152 1.97759,1.97757 4.4818,2.96766 7.51409,2.96766 3.95517,0 8.76956,-2.40719 14.43862,-7.21931 0.26368,2.57085 0.85572,4.41751 1.7786,5.53812 0.98878,1.12064 2.50543,1.68119 4.54892,1.68119 1.64799,0 3.09662,-0.33003 4.34907,-0.98922 1.31839,-0.72512 2.83503,-2.04272 4.54892,-3.9544 v -2.57047 c -1.51614,1.25247 -2.96476,1.87852 -4.34908,1.87852 -1.12062,0 -1.91167,-0.39552 -2.37312,-1.18657 -0.39552,-0.85694 -0.59453,-2.37357 -0.59453,-4.54891 v -19.28231 c 0,-5.33947 -1.0216,-9.2948 -3.06509,-11.86566 -2.04349,-2.63678 -5.7683,-3.95439 -11.17369,-3.95439 z m 76.13753,0 c -6.06459,0 -11.04149,2.2422 -14.93073,6.7247 -3.82332,4.41661 -5.73549,10.28159 -5.73549,17.59865 0,6.78969 1.64763,12.19615 4.9436,16.21724 3.36189,3.95516 7.87779,5.93282 13.54684,5.93282 4.68026,0 8.83462,-1.41712 12.46019,-4.25165 3.62557,-2.83455 6.45981,-6.92089 8.5033,-12.26035 l -1.58375,-0.69195 c -2.37311,3.75739 -4.7463,6.42663 -7.1194,8.00869 -2.30718,1.58205 -5.04191,2.37312 -8.20604,2.37312 -1.77983,0 -3.49297,-0.29852 -5.14095,-0.89179 -1.58206,-0.65919 -3.16419,-1.71228 -4.74626,-3.16251 -1.58206,-1.51614 -2.86817,-3.75833 -3.85696,-6.72471 -0.98881,-3.03228 -1.54934,-6.62357 -1.68118,-10.77651 h 30.45602 c -0.72513,-6.06457 -2.47226,-10.58046 -5.24087,-13.54683 -2.76861,-3.0323 -6.65844,-4.54892 -11.66832,-4.54892 z m 70.89667,0 c -6.06457,0 -11.04151,2.2422 -14.93073,6.7247 -3.82334,4.41661 -5.73549,10.28159 -5.73549,17.59865 0,6.78969 1.64764,12.19615 4.94362,16.21724 3.36186,3.95516 7.87774,5.93282 13.54682,5.93282 4.68027,0 8.83213,-1.41712 12.4577,-4.25165 3.62554,-2.83455 6.46228,-6.92089 8.50579,-12.26035 l -1.58375,-0.69195 c -2.3731,3.75739 -4.74631,6.42663 -7.1194,8.00869 -2.30717,1.58205 -5.0419,2.37312 -8.20604,2.37312 -1.77982,0 -3.49296,-0.29852 -5.14095,-0.89179 -1.58207,-0.65919 -3.16419,-1.71228 -4.74627,-3.16251 -1.58206,-1.51614 -2.86818,-3.75833 -3.85696,-6.72471 -0.9888,-3.03228 -1.54934,-6.62357 -1.68116,-10.77651 h 30.45601 c -0.72511,-6.06457 -2.47225,-10.58046 -5.24087,-13.54683 -2.76862,-3.0323 -6.65845,-4.54892 -11.66832,-4.54892 z m 35.59697,0 c -4.48252,1.84576 -9.36242,3.62439 -14.63597,5.33831 v 1.58375 c 1.25247,-0.26369 2.40756,-0.3972 3.46228,-0.3972 1.25247,0 2.10903,0.46354 2.57047,1.38641 0.52735,0.85696 0.79187,2.37109 0.79187,4.54642 V 566.153 c 0,2.50493 -0.39553,4.12107 -1.18656,4.84618 -0.72512,0.72511 -2.67128,1.38267 -5.83541,1.97594 v 1.48384 h 23.73131 v -1.48384 c -3.36188,-0.13183 -5.60408,-0.69237 -6.7247,-1.68117 -1.12064,-0.98879 -1.67868,-2.89845 -1.67868,-5.73298 v -22.24999 c 0,-1.58205 0.82256,-3.32672 2.47055,-5.23837 1.64799,-1.91166 3.1306,-2.86774 4.449,-2.86774 0.46144,0 1.41751,0.59205 2.86775,1.7786 1.45022,1.12063 2.67083,1.68117 3.65961,1.68117 1.18654,0 2.10862,-0.39553 2.76783,-1.18655 0.7251,-0.79104 1.08913,-1.87814 1.08913,-3.26244 0,-1.64798 -0.49503,-2.9341 -1.48383,-3.85697 -0.92286,-0.92287 -2.24047,-1.38391 -3.95438,-1.38391 -2.0435,0 -3.92415,0.69155 -5.63807,2.07587 -1.71389,1.31839 -3.78857,3.72558 -6.22759,7.21932 v -9.09784 z m 35.59446,0 -15.32543,5.43821 v 1.48385 c 1.9776,-0.26369 3.36321,-0.3972 4.15424,-0.3972 1.18654,0 2.00912,0.46354 2.47056,1.38641 0.52735,0.85696 0.79187,2.37109 0.79187,4.54642 v 22.94194 c 0,3.55963 -0.46104,5.83332 -1.38391,6.82213 -0.85694,0.98879 -2.99965,1.58083 -6.42743,1.77859 v 1.48384 h 23.43404 v -1.48384 c -3.23006,-0.26367 -5.27322,-0.85572 -6.13018,-1.77859 -0.79103,-0.98881 -1.18656,-3.2625 -1.18656,-6.82213 v -35.10237 z m 31.14799,0 c -4.68028,0 -8.6356,1.08709 -11.86567,3.26243 -3.16411,2.10942 -4.74626,4.71315 -4.74626,7.81135 0,1.12064 0.42954,2.11072 1.28649,2.96767 0.85695,0.85695 1.84455,1.28398 2.96517,1.28398 1.18655,0 2.20814,-0.39553 3.06508,-1.18656 0.92288,-0.85696 1.38391,-1.84455 1.38391,-2.96516 0,-0.26369 -0.0971,-0.85823 -0.29478,-1.7811 -0.13183,-0.92287 -0.19984,-1.64595 -0.19984,-2.17329 0,-1.3184 0.69406,-2.43949 2.07837,-3.36235 1.3843,-0.98879 3.06344,-1.48383 5.04103,-1.48383 5.00988,0 7.51658,2.73473 7.51658,8.20603 v 6.03275 c -0.85695,0.32961 -2.20857,0.85615 -4.0543,1.58126 -1.84574,0.7251 -3.19736,1.28565 -4.0543,1.68117 -0.85698,0.3296 -2.10907,0.85613 -3.75706,1.58126 -1.58205,0.65919 -2.76865,1.25376 -3.55968,1.7811 -0.79104,0.46145 -1.78113,1.08749 -2.96768,1.87852 -1.18654,0.72511 -2.07463,1.45066 -2.66789,2.17578 -0.59327,0.7251 -1.21932,1.54769 -1.87852,2.47056 -0.65918,0.85696 -1.12273,1.81303 -1.38641,2.86775 -0.26368,0.98878 -0.39469,2.07837 -0.39469,3.26491 0,3.09822 0.95609,5.63393 2.86774,7.61152 1.97759,1.97757 4.4818,2.96766 7.51408,2.96766 3.95519,0 8.76707,-2.40719 14.43613,-7.21931 0.26368,2.57085 0.85823,4.41751 1.7811,5.53812 0.98879,1.12064 2.50542,1.68119 4.54892,1.68119 1.64798,0 3.0966,-0.33003 4.34907,-0.98922 1.31839,-0.72512 2.83503,-2.04272 4.54892,-3.9544 v -2.57047 c -1.51613,1.25247 -2.96725,1.87852 -4.35156,1.87852 -1.12064,0 -1.9117,-0.39552 -2.37314,-1.18657 -0.39551,-0.85694 -0.59203,-2.37357 -0.59203,-4.54891 v -19.28231 c 0,-5.33947 -1.02158,-9.2948 -3.06509,-11.86566 -2.04349,-2.63678 -5.76831,-3.95439 -11.17369,-3.95439 z m -176.10382,3.5597 c 3.03228,0 5.24046,0.82507 6.62477,2.47305 1.38431,1.64799 2.4059,4.61323 3.06509,8.89799 h -20.17162 c 1.05471,-7.58072 4.54901,-11.37104 10.48176,-11.37104 z m 70.89667,0 c 3.0323,0 5.24046,0.82507 6.62477,2.47305 1.3843,1.64799 2.40588,4.61323 3.06509,8.89799 h -20.17162 c 1.05471,-7.58072 4.54901,-11.37104 10.48176,-11.37104 z M 281.7838,547.95983 v 14.33619 c 0,1.51615 -0.16502,2.60574 -0.49461,3.26495 -0.32959,0.65918 -1.02114,1.28524 -2.07586,1.87852 -2.57084,1.51614 -4.97555,2.2732 -7.21681,2.2732 -1.51616,0 -2.93327,-0.66005 -4.25166,-1.97844 -1.31839,-1.31838 -1.97844,-3.32757 -1.97844,-6.03026 0,-2.90044 1.18659,-5.37315 3.55971,-7.41664 2.37309,-2.04351 6.52495,-4.15219 12.45767,-6.32752 z m 133.98199,0 v 14.33619 c 0,1.51615 -0.16501,2.60574 -0.4946,3.26495 -0.32961,0.65918 -1.02117,1.28524 -2.07588,1.87852 -2.57084,1.51614 -4.97805,2.2732 -7.21931,2.2732 -1.51615,0 -2.93327,-0.66005 -4.25165,-1.97844 -1.31838,-1.31838 -1.97594,-3.32757 -1.97594,-6.03026 0,-2.90044 1.18659,-5.37315 3.5597,-7.41664 2.37309,-2.04351 6.52495,-4.15219 12.45768,-6.32752 z m 249.37362,0 v 14.33619 c 0,1.51615 -0.16502,2.60574 -0.49461,3.26495 -0.32959,0.65918 -1.02114,1.28524 -2.07586,1.87852 -2.57087,1.51614 -4.97806,2.2732 -7.21931,2.2732 -1.51614,0 -2.93326,-0.66005 -4.25166,-1.97844 -1.31838,-1.31838 -1.97844,-3.32757 -1.97844,-6.03026 0,-2.90044 1.18659,-5.37315 3.55971,-7.41664 2.37309,-2.04351 6.52743,-4.15219 12.46017,-6.32752 z" />
  </g>
</svg>
